<?xml version="1.0" encoding="utf-8"?>
<!-- Generator: Adobe Illustrator 19.2.0, SVG Export Plug-In . SVG Version: 6.00 Build 0)  -->
<svg version="1.1" id="Layer_1" xmlns="http://www.w3.org/2000/svg" xmlns:xlink="http://www.w3.org/1999/xlink" x="0px" y="0px"
	 viewBox="0 0 100 100" style="enable-background:new 0 0 100 100;" xml:space="preserve">
<style type="text/css">
	.st0{display:none;}
	.st1{display:inline;fill:#E27126;}
	.st2{display:inline;fill:none;}
	.st3{fill:#E27126;}
</style>
<g class="st0">
	<path class="st1" d="M82.3,20.1H56.6c-1,0-1.9,0.9-1.9,1.9v12.1c0,1.4,1.5,2.4,2.8,1.7l25.7-12.1C84.9,22.9,84.3,20.1,82.3,20.1
		L82.3,20.1z M82.3,20.1"/>
	<path class="st1" d="M45.3,34.2V22.1c0-1-0.9-1.9-1.9-1.9H17.6c-2.1,0-2.7,2.8-0.8,3.6l25.7,12.2C43.8,36.6,45.3,35.6,45.3,34.2
		L45.3,34.2z M45.3,34.2"/>
	<rect x="15.7" y="2.8" class="st2" width="68.6" height="94.3"/>
	<path class="st1" d="M54.9,38.9c-1-0.2-1.9,0.6-2.1,1.6c-0.2,1,0.6,1.9,1.6,2.1c6.2,0.8,9,3.1,9,4.2c0,1.6-4.6,4.1-11.6,4.6V16.3
		c2.8-0.8,4.9-3.4,4.9-6.5C56.7,6.1,53.7,3,49.9,3c-3.7,0-6.8,3.1-6.8,6.8c0,3.1,2.1,5.7,4.9,6.5v35.1c-7-0.4-11.6-2.8-11.6-4.6
		c0-1.3,2.8-3.4,9-4.2c1-0.2,1.7-1,1.6-2.1c-0.2-1-1-1.7-2.1-1.6c-7.5,1-12.3,4.1-12.3,8c0,3.1,3.1,5.5,7.2,6.9
		c-2.7,1.5-4.3,3.6-4.3,6c0,3.1,2.7,5.7,6.9,7.2c-1.7,1.5-2.8,3.5-2.8,5.7c0,2.6,1.5,4.9,3.7,6.4c-2.3,1.5-3.7,3.9-3.7,6.4
		c0,2.8,1.7,5.5,4.6,6.9c0.9,0.5,2,0.2,2.5-0.7c0.5-0.9,0.2-2-0.7-2.5c-1.6-0.9-2.6-2.2-2.6-3.6c0-2,1.9-3.8,4.6-4.4v14
		c0,1,0.8,1.9,1.9,1.9c1,0,1.9-0.8,1.9-1.9v-14c2.6,0.6,4.6,2.3,4.6,4.4c0,1.4-1,2.8-2.6,3.6c-0.9,0.5-1.3,1.6-0.7,2.5
		c0.4,0.6,1.2,1.4,2.5,0.7c2.8-1.6,4.6-4.1,4.6-6.9c0-2.6-1.5-4.9-3.7-6.4c2.3-1.5,3.7-3.9,3.7-6.4c0-2.2-1-4.2-2.8-5.7
		c4.2-1.4,6.9-4,6.9-7.2c0-2.5-1.6-4.6-4.3-6c4.2-1.3,7.2-3.6,7.2-6.9C67.2,43.1,62.5,40,54.9,38.9L54.9,38.9z M48.1,77.1
		c-2.6-0.6-4.6-2.3-4.6-4.4c0-2,1.9-3.8,4.6-4.4V77.1z M48.1,64.3c-5.1-0.4-8.7-2.5-8.7-4.5c0-1.9,3.6-4,8.7-4.5V64.3z M51.8,77.2
		v-8.8c2.6,0.6,4.6,2.3,4.6,4.4C56.4,74.8,54.4,76.6,51.8,77.2L51.8,77.2z M60.5,59.8c0,1.9-3.6,4.1-8.7,4.5v-8.9
		C56.9,55.8,60.5,57.9,60.5,59.8L60.5,59.8z M60.5,59.8"/>
</g>
<g>
	<path class="st3" d="M76.9,8.5h-11V4.2H34.2v4.3h-11c-5,0-9,4-9,9v69.2c0,5,4,9,9,9h53.7c5,0,9-4,9-9V17.5
		C85.9,12.6,81.8,8.5,76.9,8.5z M37.9,7.9h24.2v4.9H37.9V7.9z M82.1,86.8c0,2.9-2.4,5.3-5.3,5.3H23.1c-2.9,0-5.3-2.4-5.3-5.3V17.5
		c0-2.9,2.4-5.3,5.3-5.3h11v4.3h31.7v-4.3h11c2.9,0,5.3,2.4,5.3,5.3V86.8z"/>
	<path class="st3" d="M66.2,46.3l-1.9,2.9c-0.3,0.4-0.7,0.5-0.9,0.5c-0.2,0-0.6,0-0.9-0.5l-0.1-0.1c-1-1.4-2.6-2.2-4.3-2.1
		c-1.7,0.1-3.2,1.2-3.9,2.7l-1,2.2c-0.3,0.6-0.8,0.6-1,0.6c-0.2,0-0.8-0.1-0.9-0.8L49,43c-0.5-2.2-2.4-3.6-4.6-3.6c0,0,0,0,0,0
		c-2.2,0-4.1,1.5-4.6,3.6l-2,8.4c-0.2,0.7-0.7,0.8-0.9,0.8c-0.2,0-0.8,0-1-0.6l-2-4.6c-0.8-1.7-2.5-2.9-4.4-2.9H24v3.7h5.4
		c0.4,0,0.8,0.2,1,0.6l2,4.6c0.8,1.9,2.7,3,4.8,2.9c2.1-0.2,3.7-1.6,4.2-3.6l2-8.4c0.2-0.7,0.8-0.8,1-0.8c0.3,0,0.8,0.1,1,0.8
		l2.3,8.9c0.5,2,2.1,3.4,4.2,3.6c0.2,0,0.3,0,0.5,0c1.9,0,3.5-1,4.3-2.8l1-2.2c0.2-0.5,0.7-0.6,0.9-0.6c0.2,0,0.6,0,0.9,0.5l0.1,0.1
		c0.9,1.3,2.4,2.1,3.9,2.1c0,0,0,0,0,0c1.6,0,3.1-0.8,3.9-2.1l1.9-2.9c0.2-0.3,0.5-0.5,0.9-0.5H76v-3.7h-5.9
		C68.6,44.1,67.1,44.9,66.2,46.3z"/>
	<rect x="24" y="71.7" class="st3" width="21" height="3.7"/>
	<rect x="24" y="80.9" class="st3" width="42.1" height="3.7"/>
</g>
</svg>
