<?xml version="1.0" encoding="utf-8"?>
<!-- Generator: Adobe Illustrator 19.2.0, SVG Export Plug-In . SVG Version: 6.00 Build 0)  -->
<svg version="1.1" id="Layer_1" xmlns="http://www.w3.org/2000/svg" xmlns:xlink="http://www.w3.org/1999/xlink" x="0px" y="0px"
	 viewBox="0 0 100 100" style="enable-background:new 0 0 100 100;" xml:space="preserve">
<style type="text/css">
	.st0{fill-rule:evenodd;clip-rule:evenodd;}
	.st1{fill-rule:evenodd;clip-rule:evenodd;fill:#E27126;}
	.st2{fill:#E27126;}
</style>
<g>
	<path class="st0" d="M51.2,33.5c1.4-1.1,2.3,1,3,1.7C52.9,36.1,52.6,33.4,51.2,33.5z"/>
	<path class="st1" d="M85.8,4.3c0.8-0.3,1.6-0.6,2.4-0.8c0.3-0.1,0.6-0.1,0.9-0.2c0.8-0.3-0.1,1.8-0.8,2.7C88.1,6.7,88,7.4,87.9,8
		l-0.3,0.7C81.8,21.4,69.8,29.3,57,33.9c-2.4,4-0.6,8.8-0.9,12.8c4.1,2.6,8,4.8,9.4,6.7c1,2,1.5,5.1,1.1,9.5
		c-2.3,4.3-7.6,5.6-11.9,7.9c-0.2,3.7-2.5,7.4-2.3,11.9c0.1,1.9,1.8,4.7,1.3,6.3c-0.9,3-6,1.8-8.3,4c0.2,1.7,2.3,3,1.5,4.5
		c-0.2,0.4-0.5,0.2-0.9,0.1c-3.2-1.2-5.1-3.1-6.3-5.9c-1.2-3-2.5-9.2-1-13.2c1-2.5,4.2-4.8,5.8-6.7c0.2-0.2-0.2-1.2,0-1.8
		c1.4-5.4-1.8-10.5-2.2-15.9c-0.1-2,0.3-3.7,0.3-5.9c-2.7-2.6-8.7-5.4-9.2-8.3c-0.6-3.2,0.5-7,1.3-9.2c-2.8-1.1-5.8-2.8-7.9-4
		c-3.4-2.1-3.9-2.5-5.8-4.2c-3.5-3.5-9.2-8.8-9.6-17.3C11,4.1,10.1,2,10.9,2.4c0.4,0.1,0.6,0.2,0.9,0.3c6.6,2.6,13.4,5.7,20.6,7.8
		c0.3-1.1-0.1-1.7-0.7-2.9c0.9,0.1,1.6,0.2,3.3,1.2c-0.2-1.6,0.5-2.3,1.9-2.4c2.1-0.1,1.1,1.9,2.3,1.3c-0.2-0.5-0.4-0.9-0.7-1.4
		c3.8-4,17.1-4.5,20.9,0.1c-0.2,0.7-1.2,1.3-0.2,1.9c0.5-1.3,0.7-1.7,1.8-1.6c1.8,0.7,1.7,1.7,1.2,2.6c1-0.5,2.3-1.1,3.4-1
		c-0.6,0.7-0.9,1.6-0.8,2.4c7.3-1.3,14.4-4.2,20.4-6.3C85.4,4.4,85.6,4.4,85.8,4.3z M59,6.5C54.9,2.5,43.6,3,39,6.3
		c0.9,1.7,1.4,2.6,2.6,4.5c3.6-2.6,10.1-3.2,14.9-0.1L59,6.5z M17.8,8.4c-1.4-0.9-4-2.3-5.3-2.2C13.1,7.7,16.2,9.8,17.8,8.4z
		 M18.2,7.7c8.1,3.1,17.2,5.2,24.9,8c0.4,0.3,0.2,2.8,0.2,4c0.3,0,0.5-0.1,1.1-0.2c0.2-0.7,0.3-4.5-0.9-5
		C32.2,11.5,21.9,7.7,11.9,3.4C12.5,6.2,15.9,6.9,18.2,7.7z M72.6,9.7c-8,2.6-17.1,2.9-17.7,10c0.2,0.1,1.1,0.3,1.1,0.1
		c0.3-1.3,1.3-3.4,3-4.5c0.4-0.3,1-0.5,1.4-0.7c8.1-3.1,20.9-4.8,27.7-9.6c0.3-0.5,0.8-1.3,0-1C84.3,5.7,78.9,7.7,72.6,9.7z
		 M22.1,10.7c-1-0.8-1.9-1.6-3.3-2c-1.6,5.1,3.9,6.4,6.6,8.3c4.3,2.9,10.3,8,15.8,7.9c0.4-1.1-1.1-0.3-0.7-1.3
		c2.8,1.4,3.6,4.8,6.9,5.6c-0.3,1.3-2.6,0.4-3,1.7c0.8,0.7,0.5,2.4,1.3,3c1.1,0.4,1.7-1.3,2.3-0.3c-1.8,1.5-2.6,4.3-2.7,7.6
		c1.1,0.7,2.3,1.2,4,2.2c0.2-4.1-0.4-9.2,0.3-12.7c0,4.3,0,8.6,0,12.9c1.8,0.9,3.2,2.2,5.7,3.1c-0.2-0.7,0.4-2.8-0.4-2.9
		c-0.4,0.7-0.8,0.6-1.4,0.7c0.3-1.3,1.2-1.5,1.4-2.9c-1.4-4.8,2.5-9.2,1.3-12.8c-0.8,0.6-3.5,1.8-4.3,0.3c4.3,0,4.7-3.9,7.6-5.3
		c0.1,0.6-1.9,1.3-0.3,1.3C67.9,22,78,19,80.5,11.3c-0.7,0.1-1.7,1.6-2,1c0.8-0.6,1.4-1.2,2.6-1.3c0.7,1.6-1.7,1.8-0.7,2.6
		c0.7-0.9,1.6-1.7,1.3-3.6c-1.6,0.4-3.8,1.7-3.9,2c0,0.7-0.6,0.9-0.4,1.9c-1.5,2.5-6.1,2.5-9.2,4c-2.1,1-4.2,2.6-7.3,2.6
		c-3.6-0.1-6.9,1.4-9.2-1c-0.1-0.6,0.5-1.1,0.4-1.6c-2.8,3.4-7.8,1.6-12,3.3c-1.7-0.8-3.3-1.7-5.9-1.7c-2.4-3.8-10-2.6-11.2-7.6
		c-1-0.4-1.7-1.1-3-1.3c0.6,1.3,2.2,1.6,2,3.6c-1-1.3-2.5-2.1-2.6-4.3C20.7,9.7,21.6,11.4,22.1,10.7z M25.1,14.3
		c6.3,1.1,11.3,7.3,17.4,5.2c0-1.1,0-2.2,0-3.3c-6.5-2.7-14.3-4.2-20.8-6.9C23.1,10.6,24.4,12.4,25.1,14.3z M61.8,19.7
		c0.5,0,1.6-0.1,2-0.3c2-0.8,3.4-1.6,5.2-2.3c2.4-0.9,7-2,7.3-2.6c0.3-6,10.1-4.1,11.2-8.5c-5.8,3.1-9.3,4-13.5,5.3
		c-6.1,1.9-16.2,2.9-17.2,8.6C58.6,19.7,60.2,19.8,61.8,19.7z M59.7,11c1.5-0.1,2-1.3,2.3-2.6c-0.2-0.7-1-0.8-1.7-1.1
		C59.9,8.2,58.9,9.7,59.7,11z M37.4,6.9c-0.7,0.3-1.5,0.4-1.7,1.1c0.3,1.4,0.8,2.5,2.3,2.6C38.8,9.4,37.8,7.9,37.4,6.9z M17.8,11
		c-0.3-1.9-3.9-2.7-5.3-2.6C13.7,9.9,15,11.2,17.8,11z M82.5,11.3c2.2,0.3,4.9-2,3.6-3C85.3,9.7,82.4,9,82.5,11.3z M37.6,11.3
		c0.9,2.4,5.6,1.3,6.8,3.4c0.8,1.1,0.6,3.7,0.6,4.9c0.1,0.1,1,0,1.5-0.1c0.1-2.5-2.8-6.7,0.8-10.1C44,9.8,41.2,14,37.6,11.3z
		 M46.5,13c1.3,0,2.5,0.1,3,1c0,1.4,0,2.9,0,4.3C57,16.6,48.8,3.3,46.5,13z M53.8,19.8c0.9-2.3,1.1-3.8,2.7-5.3c1-1,3.2-1.5,3.9-3
		c-3.4,2-6.4-1.5-9.1-2C55.6,13.3,51.5,17.3,53.8,19.8z M18.8,13c-0.8-1.6-3.3-1.6-5-2.3C14.3,12.4,16.8,13.9,18.8,13z M81.5,14
		c1.2-0.8,4.6-1.1,3.6-3C83.9,11.8,80.7,12.3,81.5,14z M20.8,15.3c-0.8-1.4-3-1.4-5-1.7C16.4,15.1,19,16.2,20.8,15.3z M78.6,16
		c2.3,0.5,5.2-0.8,4.8-2.1C81.6,14.7,78.9,14.1,78.6,16z M48.9,18.3c0.1-2.2,0.1-4.3-2.3-4C46.7,16.3,47.2,17.9,48.9,18.3z
		 M24.1,17.3c-1.9-1.4-3.8-1.2-6.6-1.3C17.9,17.9,22.4,18.7,24.1,17.3z M76.1,18.2c3,0.3,5.1-0.1,6.1-1.9
		C79.4,16.9,77.2,15.6,76.1,18.2z M19.8,18.6c0.5,2.3,4.4,1.6,6.6,1.3C26.2,16.4,22.5,19,19.8,18.6z M73.7,20.1c2,0.5,4.5,1,6-0.8
		C77.5,19.2,74.4,17.8,73.7,20.1z M22.1,21.6c1.8,1.7,5.5,0.8,6.9-0.7C27.8,19.2,23.9,20.8,22.1,21.6z M71.3,21.2
		c0.5,2,4.8,2.3,6,0.4C74.3,21.7,72.9,19.8,71.3,21.2z M25.4,23.9c2.3,1,4.5-0.4,5.3-2C28.9,21.3,26.4,22.6,25.4,23.9z M27.4,25.5
		c2.6,1.8,5.1-0.7,5.9-2.6C31,21.5,29.5,24.7,27.4,25.5z M74,24.2c-1.1-1.1-3.4-2.5-5.4-1.6C69.8,23.8,71.6,25.3,74,24.2z
		 M66.3,22.9c-0.6,1.9,3.8,5.2,5.7,2.6C69.6,25.3,68.8,22.1,66.3,22.9z M30.4,27.2c2.6,1.1,4.9-0.8,5.3-3
		C33.3,22.5,32.1,26.3,30.4,27.2z M63.7,24.5c0.5,2,3.2,4.6,5.6,2.7C66.8,26.9,66.1,22.9,63.7,24.5z M33,28.5
		c0.4,0.5,1.6,0.8,2.5,0.4c0.5-0.3,2.2-2,2.8-3.7C35.7,24.2,34.6,27.4,33,28.5z M61.4,25.4c-0.1,1.2,1.5,2.8,2.9,3.7
		c0.8,0.4,2.2,0.4,2.4-0.5C64.3,28.3,64,24.3,61.4,25.4z M35.3,29.8c2.9,1.1,4.4-0.9,4.5-3.6c0-0.6-0.2-0.9-0.4-1
		c0,0-0.1,0.2-0.2,0.3C38.2,27.4,36.7,28.4,35.3,29.8z M59.4,26.1c-0.8,2,2.3,6,4.6,3.9C62,29.4,61.1,25.7,59.4,26.1z M40.3,32.1
		c0.2,0.1,0.3,0.2,0.8,0.3c1.5-0.2,1.7-1.6,0.9-2.6C41.5,30.7,40.5,31.1,40.3,32.1z M41.6,26.5c-1.4,1.2-2.2,3.1-3.3,4.6
		C41.4,31.7,42.5,28.9,41.6,26.5z M61.4,31.5c-1.4-1.2-2.1-3.2-3.3-4.6C56.3,29,58.8,32.6,61.4,31.5z M59.4,32.1
		c-1.2-0.5-1.7-1.1-2.3-2C56.6,32.4,58.4,33.6,59.4,32.1z M34.8,40.4c8,8.1,21.7,11.7,29.9,19.1c0.7,0.6,0.9,1.1,1.3,1.5
		c0.2-2.6-0.1-4.7-0.8-7.2c-2.9-4.5-21.8-11.6-30.2-20C34.3,35,34.1,39.1,34.8,40.4z M39.1,36.7c1.3,1.1,3,2.2,4.8,3.4
		c1-2-0.5-4.4-0.6-6.3C41.3,34,39.4,34.8,39.1,36.7z M49.2,56.9c0.1-4.5-1.1-7.1-5-6.3c-1.8,4,1.6,8.1,2,12.5
		c0.2,2.1-0.7,4.6-0.7,6.9c0.1,4.1,2.3,8,2.3,11.6c0,2.5-1.5,4.7-1.3,6.9c1,0.4,1.2,1.4,2.6,1.3C49.3,82.9,49,65.4,49.2,56.9z
		 M51.5,81.6c0-3,1.9-6.4,2.3-9.9c0.3-2.9-0.8-5.8-0.7-8.3c0.2-2.5,2.1-4.9,1.3-6.9c-0.5-1.1-3-3.3-4.3-1c0,11.4,0,22.9,0,34.3
		c1.4,0.2,1.3-1.1,2.6-1C53.5,86.9,51.5,84.5,51.5,81.6z M53.9,65.5c2.7-1.1,7.7-3.2,7.5-6c-0.1-2.2-2.8-3.3-5.3-4.6
		C55.6,58.4,53.6,63.2,53.9,65.5z M45.6,87.8c1-2.9,2.2-6.9,0.4-10.7C42.5,78.9,41.4,84.8,45.6,87.8z M46.2,96.4
		c-0.8-1.1-1.5-2.7-1.9-4.2c1.3,0,1.6-1.2,3-1.1c-4-2.5-6.8-6.1-8.2-10.6C38.8,87.8,41,95.3,46.2,96.4z"/>
	<g>
		<path class="st2" d="M43,5.1l1.4,3.6l-0.7,0.3l-0.6-1.5l-0.9,0.4l0.6,1.5l-0.7,0.3l-1.4-3.6l0.7-0.3l0.5,1.4l0.9-0.4l-0.5-1.4
			L43,5.1z"/>
		<path class="st2" d="M46.3,5.1l-1.5,0.3L45,6.2L46.1,6l0.1,0.7l-1.2,0.2l0.2,0.8l1.5-0.3l0.1,0.7l-2.2,0.4L44,4.8l2.2-0.4
			L46.3,5.1z"/>
		<path class="st2" d="M48.6,4.2L49.7,8l-0.8,0l-0.2-0.8l-1,0.1l-0.2,0.8l-0.6,0l0.8-3.9L48.6,4.2z M47.8,6.6l0.7,0l-0.4-1.3
			L47.8,6.6z"/>
		<path class="st2" d="M50.8,7.3L52,7.4L52,8.2L50,8l0.3-3.8L51,4.3L50.8,7.3z"/>
		<path class="st2" d="M54.7,4.8l-0.2,0.7l-0.8-0.2l-0.6,3l-0.7-0.2l0.6-3l-0.8-0.2l0.2-0.7L54.7,4.8z"/>
		<path class="st2" d="M57.6,6L56,9.5l-0.7-0.3L56,7.8l-0.9-0.4l-0.7,1.4l-0.7-0.3L55.4,5L56,5.3l-0.6,1.4l0.9,0.4l0.6-1.4L57.6,6z"
			/>
	</g>
	<g>
		<path class="st2" d="M38.6,39.7l-0.7-0.4c0.1-0.7-0.1-1.1-0.4-1.3c-0.3-0.2-0.5,0.2-0.7,1.1c-0.1,0.6-0.1,1,0,1.3
			c0.1,0.3,0.2,0.5,0.3,0.6c0.3,0.2,0.5,0,0.6-0.5l0.6,0.5c-0.1,0.5-0.3,0.9-0.5,1c-0.2,0.1-0.5,0.1-0.8-0.1
			c-0.4-0.3-0.6-0.7-0.8-1.2c-0.2-0.6-0.2-1.2-0.2-2c0.1-0.7,0.2-1.2,0.5-1.5c0.3-0.3,0.6-0.3,1,0C38.3,37.6,38.6,38.4,38.6,39.7z"
			/>
		<path class="st2" d="M41.3,39.6l-0.3,4.7l-0.6-0.4l0.1-1.9l-0.9-0.6l-0.1,1.9l-0.6-0.4l0.3-4.7l0.6,0.4l-0.1,1.8l0.9,0.6l0.1-1.8
			L41.3,39.6z"/>
		<path class="st2" d="M42.5,40.3l-0.3,4.7l-0.6-0.4l0.3-4.7L42.5,40.3z"/>
		<path class="st2" d="M43.6,44l-0.1,1.9l-0.6-0.4l0.2-4.8l1.2,0.7c0.2,0.1,0.4,0.3,0.5,0.5c0.1,0.2,0.2,0.4,0.3,0.7
			c0.1,0.3,0.1,0.6,0.1,0.9c0,0.6-0.2,0.9-0.5,0.9l0.4,2.4l-0.7-0.4L44,44.2L43.6,44z M43.7,41.9l-0.1,1.2l0.4,0.2
			c0.1,0.1,0.2,0.1,0.3,0.1c0.1,0,0.1,0,0.2-0.1c0.1-0.1,0.1-0.2,0.1-0.3c0-0.1,0-0.3-0.1-0.4c0-0.1-0.1-0.2-0.1-0.3
			c-0.1-0.1-0.2-0.1-0.3-0.2L43.7,41.9z"/>
		<path class="st2" d="M46.6,47.7c-0.4-0.2-0.6-0.6-0.8-1.2c-0.2-0.6-0.3-1.2-0.2-1.9c0-0.7,0.1-1.2,0.4-1.6
			c0.2-0.3,0.5-0.4,0.9-0.2c0.4,0.2,0.7,0.6,0.8,1.2c0.2,0.6,0.3,1.2,0.2,1.9c0,0.7-0.1,1.2-0.4,1.6C47.3,47.9,47,48,46.6,47.7z
			 M46.7,43.7c-0.3-0.2-0.5,0.2-0.6,1.3c0,1,0.1,1.7,0.5,1.8c0.3,0.2,0.5-0.2,0.5-1.3C47.2,44.5,47,43.9,46.7,43.7z"/>
		<path class="st2" d="M48.9,47.2l0,1.8l-0.7-0.4l0.1-4.8l1.1,0.6c0.2,0.1,0.4,0.3,0.6,0.4c0.1,0.2,0.2,0.4,0.3,0.7
			c0.1,0.3,0.1,0.6,0.1,0.9c0,0.2,0,0.5-0.1,0.6c-0.1,0.2-0.1,0.3-0.2,0.4c-0.1,0.1-0.2,0.1-0.3,0.1c-0.1,0-0.2-0.1-0.4-0.2
			L48.9,47.2z M48.9,46.3l0.4,0.2c0.2,0.1,0.3,0.1,0.3,0c0.1-0.1,0.1-0.2,0.1-0.4c0-0.2,0-0.4-0.1-0.5c-0.1-0.2-0.2-0.3-0.3-0.4
			L49,45L48.9,46.3z"/>
		<path class="st2" d="M51.4,48.5l0,1.9L50.7,50l0.1-4.8l1.2,0.7c0.2,0.1,0.4,0.3,0.5,0.4c0.1,0.2,0.2,0.4,0.3,0.7
			c0.1,0.3,0.1,0.6,0.1,0.9c0,0.6-0.2,0.9-0.5,1l0.5,2.4l-0.7-0.4l-0.4-2.1L51.4,48.5z M51.5,46.4l0,1.2l0.4,0.2
			C52,47.9,52,48,52.1,48c0.1,0,0.1,0,0.2-0.1c0-0.1,0.1-0.2,0.1-0.3c0-0.1,0-0.3-0.1-0.4c0-0.1-0.1-0.2-0.1-0.3
			c-0.1-0.1-0.2-0.1-0.3-0.2L51.5,46.4z"/>
		<path class="st2" d="M54.9,47.5l0.7,5.3l-0.7-0.4l-0.1-1.1l-0.9-0.5l-0.2,0.9l-0.6-0.3l1-4.3L54.9,47.5z M54.1,50l0.6,0.3
			l-0.2-1.8L54.1,50z"/>
		<path class="st2" d="M58.1,51.1l-0.7-0.3c0-0.7-0.1-1.1-0.4-1.3c-0.3-0.2-0.5,0.2-0.6,1.3c0,0.6,0,1,0.1,1.3
			c0.1,0.3,0.2,0.4,0.4,0.5c0.3,0.2,0.4-0.1,0.5-0.6l0.6,0.4c-0.1,0.5-0.2,0.9-0.4,1.1c-0.2,0.2-0.5,0.2-0.8,0
			c-0.4-0.2-0.7-0.6-0.9-1.2c-0.2-0.6-0.3-1.2-0.3-2c0-0.7,0.2-1.2,0.4-1.6c0.2-0.3,0.5-0.4,0.9-0.2C57.7,49,58.1,49.9,58.1,51.1z"
			/>
		<path class="st2" d="M60.3,50.6l0,0.9l-0.7-0.4L59.3,55l-0.7-0.4l0.2-3.8l-0.7-0.4l0-0.9L60.3,50.6z"/>
		<path class="st2" d="M61.2,51.2l-0.4,4.7l-0.6-0.4l0.4-4.7L61.2,51.2z"/>
		<path class="st2" d="M63.6,54.9L63,54.4c0.1-0.6,0-1.1-0.3-1.3c-0.3-0.2-0.6,0.1-0.7,1.1c-0.1,0.6-0.1,1,0,1.3
			c0.1,0.3,0.2,0.5,0.3,0.6c0.3,0.2,0.5,0,0.6-0.5l0.6,0.5c-0.1,0.5-0.3,0.8-0.5,1c-0.2,0.1-0.5,0.1-0.8-0.1
			c-0.4-0.3-0.6-0.7-0.8-1.3c-0.2-0.6-0.2-1.2-0.1-2c0.1-0.7,0.3-1.2,0.5-1.4c0.3-0.3,0.6-0.3,1,0C63.4,52.8,63.7,53.6,63.6,54.9z"
			/>
	</g>
</g>
</svg>
