<?xml version="1.0" encoding="utf-8"?>
<!-- Generator: Adobe Illustrator 19.2.0, SVG Export Plug-In . SVG Version: 6.00 Build 0)  -->
<svg version="1.1" id="Layer_1" xmlns="http://www.w3.org/2000/svg" xmlns:xlink="http://www.w3.org/1999/xlink" x="0px" y="0px"
	 viewBox="0 0 100 100" style="enable-background:new 0 0 100 100;" xml:space="preserve">
<style type="text/css">
	.st0{fill:#E27126;}
</style>
<path class="st0" d="M72.2,54.7l2.8,2.8c0.8,0.8,1.9,1.2,2.9,1.2c1.1,0,2.1-0.4,2.9-1.2c1.6-1.6,1.6-4.1,0-5.7L52.9,24.2
	c-0.6-0.6-1.4-1-2.2-1.1v0c-0.2,0-0.4-0.1-0.6-0.1c0,0,0,0-0.1,0c0,0,0,0,0,0c-0.2,0-0.4,0-0.6,0.1v0c-0.8,0.1-1.6,0.5-2.2,1.1
	L19.2,51.7c-1.6,1.6-1.6,4.1,0,5.7c0.8,0.8,1.9,1.2,2.9,1.2c1.1,0,2.1-0.4,2.9-1.2l2.8-2.8l0,23.7l22.1,0l22.2,0L72.2,54.7z
	 M56.8,73.5l0-13.9l-6.2,0h-1.3l-6.1,0l0,13.9l-9.8,0l0-24.2L50,32.8l16.7,16.4l0,24.2L56.8,73.5z M56.8,73.5"/>
</svg>
