<?xml version="1.0" encoding="utf-8"?>
<!-- Generator: Adobe Illustrator 19.2.0, SVG Export Plug-In . SVG Version: 6.00 Build 0)  -->
<svg version="1.1" id="Layer_1" xmlns="http://www.w3.org/2000/svg" xmlns:xlink="http://www.w3.org/1999/xlink" x="0px" y="0px"
	 viewBox="0 0 100 100" style="enable-background:new 0 0 100 100;" xml:space="preserve">
<style type="text/css">
	.st0{fill:#E27126;}
</style>
<g>
	<path class="st0" d="M50,15.7c-12.5,0-22.7,10.2-22.7,22.7c0,5,3.2,13.3,9.8,25.1c4.7,8.4,9.3,15.4,9.5,15.7l3.4,5.1l3.4-5.1
		c0.2-0.3,4.8-7.3,9.5-15.7c6.6-11.9,9.8-20.1,9.8-25.1C72.7,25.9,62.5,15.7,50,15.7L50,15.7z M50,50c-6.5,0-11.8-5.3-11.8-11.8
		c0-6.5,5.3-11.8,11.8-11.8c6.5,0,11.8,5.3,11.8,11.8C61.8,44.7,56.5,50,50,50L50,50z M50,50"/>
</g>
</svg>
