<?xml version="1.0" encoding="utf-8"?>
<!-- Generator: Adobe Illustrator 19.2.0, SVG Export Plug-In . SVG Version: 6.00 Build 0)  -->
<svg version="1.1" id="Layer_1" xmlns="http://www.w3.org/2000/svg" xmlns:xlink="http://www.w3.org/1999/xlink" x="0px" y="0px"
	 viewBox="0 0 100 100" style="enable-background:new 0 0 100 100;" xml:space="preserve">
<style type="text/css">
	.st0{fill:#E27126;stroke:#E27126;stroke-miterlimit:10;}
	.st1{fill:#E27126;stroke:#000000;stroke-miterlimit:10;}
	.st2{stroke:#000000;stroke-miterlimit:10;}
</style>
<g>
	<path class="st0" d="M59.3,10H41.6c-5.7,0-10.4,4.7-10.4,10.4v60.4c0,5.7,4.7,10.4,10.4,10.4h17.7c5.7,0,10.4-4.7,10.4-10.4V20.4
		C69.7,14.7,65,10,59.3,10z M67,79.8h-33V21.4h33V79.8z"/>
	<path class="st1" d="M50.8,87.6h-0.7c-1.4,0-2.5-1.1-2.5-2.5v0c0-1.4,1.1-2.5,2.5-2.5h0.7c1.4,0,2.5,1.1,2.5,2.5v0
		C53.3,86.5,52.2,87.6,50.8,87.6z"/>
	<path class="st2" d="M56.9,16.8H44c-0.3,0-0.6-0.3-0.6-0.6v0c0-0.3,0.3-0.6,0.6-0.6h12.9c0.3,0,0.6,0.3,0.6,0.6v0
		C57.5,16.5,57.3,16.8,56.9,16.8z"/>
</g>
</svg>
